<svg width="98" height="172" viewBox="0 0 98 172" fill="none" xmlns="http://www.w3.org/2000/svg">
    <path d="M35.2168 16.5717L34.9783 17.3664C34.8273 17.8699 35.3645 18.3021 35.824 18.0468L39.704 15.8912C39.7911 15.8429 39.889 15.8175 39.9885 15.8175H45.4021C45.7257 15.8175 45.988 15.5552 45.988 15.2317V6.44423C45.988 6.12068 45.7257 5.8584 45.4021 5.8584H28.7059C28.3824 5.8584 28.1201 6.12068 28.1201 6.44423V15.2317C28.1201 15.5552 28.3824 15.8175 28.7059 15.8175H34.6556C35.0481 15.8175 35.3295 16.1958 35.2168 16.5717Z" fill="#FFC648" />
    <circle cx="36.9074" cy="7.61585" r="4.68665" fill="#6FCF97" />
    <path d="M34.8569 7.61584L36.3215 9.08042L39.2507 5.56543" stroke="white" stroke-width="1.17166" />
    <path d="M57.8534 37.6896L65.772 39.1116C65.6014 39.8122 61.6903 41.4818 59.7561 42.229L57.8534 37.6896Z" fill="#912E04" />
    <path d="M62.0436 41.4929C58.7912 43.4897 57.8856 40.0588 58.0878 38.1122C58.0878 38.1122 59.2121 36.7273 59.4747 36.3415C59.7373 35.9556 60.2597 34.7335 60.2597 34.7335L68.067 33.1485L64.9282 39.8057C64.7531 40.063 64.287 40.0376 62.0436 41.4929Z" fill="#FFA171" />
    <path d="M57.6366 41.2349C57.236 39.0009 57.0992 38.9395 58.1137 38.0058C58.1137 38.0058 57.9286 41.306 61.0437 41.5584C64.1588 41.8109 58.0373 43.4689 57.6366 41.2349Z" fill="#F37F4E" />
    <path d="M66.4911 36.5034C64.7022 37.7545 61.0417 36.9477 59.4617 36.3943L60.2266 34.7533L67.8309 33.5406L66.4911 36.5034Z" fill="#F37F4E" />
    <path d="M57.1938 15.3322C54.3662 15.7813 57.8288 19.4083 59.9136 21.1657C60.7755 24.3018 63.4104 31.3773 67.054 34.5905C70.6977 37.8036 71.5872 34.3292 71.5764 32.1904C77.1962 33.2843 78.0913 26.818 77.8364 23.4482C81.2529 20.8084 79.2416 18.544 77.809 17.7418C78.263 16.511 78.6803 13.0993 76.717 9.29843C74.7538 5.49757 71.1548 7.72244 69.6007 9.30998C68.2765 6.31337 66.2688 7.25904 65.4305 8.10644C64.001 5.78092 60.3437 1.91301 57.1507 5.04552C53.9577 8.17803 55.849 13.2085 57.1938 15.3322Z" fill="#5E2D1E" />
    <path d="M57.3386 26.9587C57.6769 21.9743 59.9261 18.8985 61.0084 17.9837C63.0744 20.0324 64.5826 19.0812 65.0785 18.3495C66.0112 21.6109 67.9449 21.5872 68.7952 21.1676C70.2543 22.4488 69.2033 26.6165 68.4954 28.5402C68.2458 29.3431 68.355 30.1826 70.7887 27.1173C73.2224 24.052 74.1462 25.8343 74.3038 27.1086C67.774 36.6553 62.4364 36.2138 59.4555 35.349C56.4746 34.4843 56.9156 33.1892 57.3386 26.9587Z" fill="#FFA171" />
    <path d="M68.2047 24.0542C67.5776 22.759 66.0978 22.5435 65.4363 22.5976C65.1329 22.4736 65.1597 22.2878 65.211 22.2104C66.9898 22.0171 67.948 23.359 68.2047 24.0542Z" fill="#333333" stroke="black" stroke-width="0.585831" />
    <ellipse cx="65.2496" cy="25.1474" rx="0.6009" ry="0.955977" transform="rotate(22.2393 65.2496 25.1474)" fill="#333333" />
    <path d="M60.4512 19.8511C61.2298 19.9098 62.006 20.8115 62.2968 21.255C61.245 20.3055 60.3746 20.351 60.0709 20.4924C59.8732 20.2541 59.6725 19.7924 60.4512 19.8511Z" fill="#333333" stroke="black" stroke-width="0.585831" />
    <ellipse cx="60.6485" cy="23.2661" rx="0.6009" ry="0.955977" transform="rotate(22.2393 60.6485 23.2661)" fill="#333333" />
    <path d="M73.38 27.2031C73.3648 27.1804 73.3479 27.1578 73.3295 27.1358C73.2688 27.1826 73.1491 27.3429 72.9296 27.7272C72.5142 28.4544 71.76 28.3506 71.4347 28.2078C72.3074 26.563 73.0294 26.7772 73.3295 27.1358C73.3836 27.094 73.3908 27.1426 73.38 27.2031Z" fill="#F37F4E" />
    <path d="M64.0166 30.5452C63.2891 30.7556 61.4817 30.8268 60.6107 30.8641C60.5464 31.31 60.6384 31.8788 60.8661 32.621C63.1899 34.5155 64.8197 30.313 64.0166 30.5452Z" fill="#5C0809" />
    <path d="M63.6488 32.1655C62.7662 31.3797 61.2747 31.5489 60.6393 31.7317C60.6577 31.9753 60.7911 32.443 60.8555 32.6463C62.2116 33.732 63.2571 32.7627 63.6488 32.1655Z" fill="#E84C4F" />
    <path d="M59.6736 28.0318C59.2304 27.6145 61.0223 25.8881 61.9736 25.0771L60.9124 28.5383C60.6841 28.5433 60.1168 28.4491 59.6736 28.0318Z" fill="#F37F4E" />
    <path d="M26.7925 30.5207L28.6699 19.1147L35.4903 20.7753L33.4536 32.1425L26.7925 30.5207Z" fill="#333333" />
    <path d="M65.1822 105.845C67.8014 102.57 77.149 98.3764 81.4954 96.689C83.0324 98.4126 84.5151 105.108 85.0643 108.24C83.4432 108.34 74.1709 114.303 69.7374 117.271L65.1822 105.845Z" fill="#4F4F4F" />
    <path d="M71.8433 75.1388C70.7121 73.0417 69.5949 70.4027 69.1777 69.3453C71.2047 66.1 75.5933 59.9214 76.9312 61.1692C78.6036 62.7289 79.6922 73.845 79.8611 75.4604C80.03 77.0758 72.8071 92.8869 74.704 94.3326C76.6009 95.7784 76.3596 100.695 76.3097 102.286C76.2599 103.876 75.1347 106.188 74.066 105.844C73.211 105.568 71.7202 102.508 71.0817 101.013L70.8341 101.683L70.1805 102.058C68.2261 97.7312 73.2572 77.76 71.8433 75.1388Z" fill="#FFA171" />
    <path d="M79.2747 70.5949L71.2798 73.9895L69.4629 70.483C72.0735 68.0357 77.4091 63.2477 77.8675 63.6741C78.3259 64.1006 78.9967 68.4656 79.2747 70.5949Z" fill="#F37F4E" />
    <path d="M70.8193 100.358L71.3907 101.706L70.8341 101.683L70.8193 100.358Z" fill="#F37F4E" />
    <path d="M21.5126 112.361L22.8166 108.968C24.8834 108.946 28.9931 109.117 28.8976 109.971C28.7783 111.038 26.5664 113.311 25.0634 114.519C23.861 115.486 22.1952 113.483 21.5126 112.361Z" fill="#FFA171" />
    <path d="M18.4458 118.839C15.9216 115.582 19.5283 112.565 21.5583 111.135L22.3251 110.045C22.2551 110.871 21.7256 111.293 22.9741 111.902C26.3163 113.531 31.3628 105.736 32.9161 107.323C34.1587 108.592 33.7362 110.689 33.0809 111.495C24.8604 115.931 20.9699 122.096 18.4458 118.839Z" fill="#F2F2F2" />
    <path d="M30.5979 155.869L31.8786 147.607L39.3116 145.481L36.2374 155.106L30.5979 155.869Z" fill="#FFA171" />
    <path d="M23.1127 162.48C22.9668 160.308 27.718 155.496 30.1118 153.361C33.1137 155.442 35.8495 154.196 36.8422 153.313C37.3445 153.482 38.2176 154.199 37.6917 155.713C37.0342 157.605 30.1454 164.192 27.9238 164.888C26.1465 165.445 24.7449 165.051 24.2663 164.785C23.9426 164.922 23.2586 164.652 23.1127 162.48Z" fill="#F2F2F2" />
    <path d="M28.1197 164.43C27.0035 162.179 24.554 161.294 23.4688 161.133C21.2347 166.268 26.517 165.586 28.2372 165.218C29.6133 164.923 34.9805 159.382 37.4921 156.648L37.7247 155.693C36.4503 157.879 30.7904 162.429 28.1197 164.43Z" fill="#333333" />
    <path d="M37.8621 149.935L31.59 150.179L31.4645 150.233L31.8194 147.62L38.8978 147.067L37.8621 149.935Z" fill="#F37F4E" />
    <path d="M16.3834 107.466C14.3683 103.827 28.1244 89.147 35.2543 82.2621L63.4489 82.2675C63.0714 80.8543 62.7447 78.925 64.4574 82.513C66.5982 86.998 63.8157 97.7338 54.0976 111.785C46.3232 123.026 41.7995 137.841 39.4056 147.865L30.8381 148.647C31.8373 142.003 31.9707 138.915 32.6291 131.493C33.2965 123.97 37.3026 109.026 39.685 102.513C36.2966 105.23 28.9878 110.748 26.8594 111.085C24.1988 111.505 18.9023 112.015 16.3834 107.466Z" fill="#E82A2A" />
    <path d="M52.1 109.351C57.2827 102.382 60.0434 92.5438 60.7759 88.4961C62.1059 84.65 64.8301 78.7952 65.0873 86.1443C65.4088 95.3307 56.5825 108.952 54.4968 111.284C52.4111 113.615 48.3783 121.404 45.3368 128.816C42.9036 134.745 40.3646 144.004 39.3992 147.892L30.9767 148.54L38.1845 146.415C40.6635 136.964 46.9174 116.32 52.1 109.351Z" fill="#CD1B1B" />
    <path d="M20.8876 117.353C20.1229 116.245 18.6326 115.146 17.9831 114.735C15.8794 119.957 19.525 120.217 21.6108 119.694C25.4121 116.974 33.0278 111.527 33.0806 111.495C33.1334 111.463 33.3342 111.069 33.4279 110.877L21.7206 119.243C21.7616 119.075 21.6522 118.462 20.8876 117.353Z" fill="#333333" />
    <path d="M42.5568 95.7827C41.6336 97.9193 39.7852 102.271 39.7765 102.583C39.443 103.542 29.5005 109.921 27.9753 110.758C26.9355 111.329 24.4134 111.353 22.7758 111.269C22.489 111.3 22.2344 111.285 22.016 111.219C22.2344 111.237 22.4918 111.255 22.7758 111.269C26.86 110.827 37.4552 100.985 42.5568 95.7827Z" fill="#CD1B1B" />
    <path d="M28.394 59.2751C31.2194 60.2329 39.9424 57.0268 43.9508 55.304C43.1088 51.6038 40.3142 45.0237 35.872 48.3051C30.3193 52.4068 31.8566 32.0066 32.709 30.5837C33.5615 29.1608 30.1221 25.7371 29.5311 25.5089C29.0583 25.3263 27.7917 26.6878 27.2174 27.3913L28.3029 22.9329C27.426 23.6095 25.4497 25.4148 24.5599 27.2222C23.4476 29.4814 26.9216 35.303 27.3372 37.1752C27.7529 39.0474 24.8624 58.0779 28.394 59.2751Z" fill="#FFA171" />
    <path d="M27.5076 58.4129C30.3692 59.222 34.2896 52.0336 35.8921 48.3382L36.0786 58.1945C35.2345 58.4669 32.9758 59.0921 30.6936 59.4135C28.4114 59.7349 27.6187 58.8803 27.5076 58.4129Z" fill="#F37F4E" />
    <path d="M28.358 37.2551L26.543 35.1265C27.4693 37.0949 27.3874 37.7778 27.3643 38.3344C27.5517 37.5648 28.034 37.3542 28.358 37.2551Z" fill="#F37F4E" />
    <path d="M31.4662 33.1486C31.769 32.8288 32.1564 32.2766 32.585 30.8629L32.2711 32.6137C32.2711 32.6137 32.1664 32.8131 31.9619 32.9601C31.7574 33.1071 31.4662 33.1486 31.4662 33.1486Z" fill="#F37F4E" />
    <path d="M65.8048 39.0916C58.2934 43.9871 57.3673 40.1858 58.2312 37.7537C54.739 34.3621 42.0075 42.0778 35.9718 46.2774L34.9328 61.5139L45.9475 54.7221C45.4465 60.2899 37.0794 74.8273 32.2015 83.8161C41.9959 95.9611 58.9944 89.6553 66.225 85.8591C64.8465 84.0392 64.9994 73.9975 66.0493 65.9133L68.0649 72.6448L80.6553 63.538C74.3964 59.4559 75.762 46.6885 65.8048 39.0916Z" fill="#FFC648" />
    <path d="M62.6895 59.2761L66.0686 65.8336C65.2285 71.4088 65.3077 79.6198 65.4523 83.0284C61.6621 72.5476 62.0312 62.8266 62.6895 59.2761Z" fill="#EEA320" />
    <path d="M45.9483 54.8346L46.6877 52.2597C46.6877 52.2597 44.8905 54.0992 41.3016 55.4462C37.7127 56.7932 35.2797 56.5101 35.2797 56.5101L34.9329 61.5138L45.9476 54.722L45.9483 54.8346Z" fill="#EEA320" />
</svg>
