<svg width="8" height="8" viewBox="0 0 8 8" fill="none" xmlns="http://www.w3.org/2000/svg">
<path fill-rule="evenodd" clip-rule="evenodd" d="M7.33333 8C7.70152 8 8 7.70152 8 7.33333C8 6.96514 7.70152 6.66667 7.33333 6.66667L2.32462 6.66667L7.80474 1.13812C8.06509 0.87777 8.06509 0.455659 7.80474 0.19531C7.54439 -0.0650397 7.12228 -0.0650397 6.86193 0.19531L1.33333 5.77277L1.33333 0.666665C1.33333 0.298475 1.03486 -1.56259e-06 0.666667 -1.59477e-06C0.298476 -1.62696e-06 -2.80386e-07 0.298475 -3.12574e-07 0.666665L-8.95392e-07 7.33333C-9.27581e-07 7.70152 0.298476 8 0.666666 8L7.33333 8Z" fill="#EB5757"/>
</svg>
