<svg width="26" height="18" viewBox="0 0 26 18" fill="none" xmlns="http://www.w3.org/2000/svg">
    <path d="M0.5 1.49375C0.5 0.80625 1.0575 0.25 1.74375 0.25H11.7563C12.0861 0.25 12.4025 0.381037 12.6357 0.614286C12.869 0.847534 13 1.16389 13 1.49375C13 1.82361 12.869 2.13997 12.6357 2.37321C12.4025 2.60646 12.0861 2.7375 11.7563 2.7375H1.74375C1.41389 2.7375 1.09753 2.60646 0.864286 2.37321C0.631038 2.13997 0.5 1.82361 0.5 1.49375Z" fill="black" />
    <path d="M0.5 9.0001C0.5 8.3126 1.0575 7.75635 1.74375 7.75635H24.2562C24.5861 7.75635 24.9025 7.88739 25.1357 8.12063C25.369 8.35388 25.5 8.67023 25.5 9.0001C25.5 9.32996 25.369 9.64631 25.1357 9.87956C24.9025 10.1128 24.5861 10.2438 24.2562 10.2438H1.74375C1.41389 10.2438 1.09753 10.1128 0.864286 9.87956C0.631038 9.64631 0.5 9.32996 0.5 9.0001Z" fill="black" />
    <path d="M1.74375 15.2625C1.41389 15.2625 1.09753 15.3935 0.864286 15.6267C0.631038 15.86 0.5 16.1763 0.5 16.5062C0.5 16.8361 0.631038 17.1524 0.864286 17.3857C1.09753 17.6189 1.41389 17.75 1.74375 17.75H16.7563C17.0861 17.75 17.4025 17.6189 17.6357 17.3857C17.869 17.1524 18 16.8361 18 16.5062C18 16.1763 17.869 15.86 17.6357 15.6267C17.4025 15.3935 17.0861 15.2625 16.7563 15.2625H1.74375Z" fill="black" />
</svg>
