<svg width="20" height="20" viewBox="0 0 20 20" fill="none" xmlns="http://www.w3.org/2000/svg">
    <path fill-rule="evenodd" clip-rule="evenodd" d="M10 2.49992C5.85787 2.49992 2.50001 5.85778 2.50001 9.99992C2.50001 14.1421 5.85787 17.4999 10 17.4999C14.1421 17.4999 17.5 14.1421 17.5 9.99992C17.5 5.85778 14.1421 2.49992 10 2.49992ZM0.833344 9.99992C0.833344 4.93731 4.9374 0.833252 10 0.833252C15.0626 0.833252 19.1667 4.93731 19.1667 9.99992C19.1667 15.0625 15.0626 19.1666 10 19.1666C4.9374 19.1666 0.833344 15.0625 0.833344 9.99992Z" fill="black" />
    <path fill-rule="evenodd" clip-rule="evenodd" d="M10 4.16658C10.4602 4.16658 10.8333 4.53968 10.8333 4.99992V9.48489L13.706 10.9212C14.1177 11.1271 14.2845 11.6276 14.0787 12.0393C13.8729 12.4509 13.3723 12.6178 12.9607 12.4119L9.62733 10.7453C9.34501 10.6041 9.16668 10.3156 9.16668 9.99992V4.99992C9.16668 4.53968 9.53977 4.16658 10 4.16658Z" fill="black" />
</svg>