<svg width="20" height="20" viewBox="0 0 20 20" fill="none" xmlns="http://www.w3.org/2000/svg">
    <path d="M5.00001 1.66675C5.00001 2.09425 5.40834 2.50008 5.83334 2.50008H14.1667C14.5942 2.50008 15 2.09175 15 1.66675H16.6667C16.6667 2.32979 16.4033 2.96567 15.9344 3.43451C15.4656 3.90336 14.8297 4.16675 14.1667 4.16675H10.8333L10.8342 5.88508C12.445 6.0886 13.9263 6.87285 15.0001 8.09072C16.0739 9.3086 16.6665 10.8764 16.6667 12.5001V17.5001C16.6667 17.7211 16.5789 17.9331 16.4226 18.0893C16.2663 18.2456 16.0544 18.3334 15.8333 18.3334H4.16668C3.94566 18.3334 3.7337 18.2456 3.57742 18.0893C3.42114 17.9331 3.33334 17.7211 3.33334 17.5001V12.5001C3.33337 10.8762 3.926 9.30822 5.00001 8.09029C6.07403 6.87236 7.55559 6.08824 9.16668 5.88508V4.16675H5.83334C4.45001 4.16675 3.33334 3.05008 3.33334 1.66675H5.00001ZM10 7.50008C7.30168 7.50008 5.00001 9.80008 5.00001 12.5001V16.6667H15V12.5001C15 9.80175 12.6983 7.50008 10 7.50008ZM10 9.16675C10.6183 9.16675 11.1967 9.33508 11.6933 9.62842L9.41001 11.9109C9.26055 12.0609 9.17378 12.2621 9.16732 12.4737C9.16086 12.6854 9.23519 12.8915 9.37522 13.0503C9.51524 13.2091 9.71047 13.3087 9.92124 13.3287C10.132 13.3488 10.3425 13.2879 10.51 13.1584L10.5892 13.0892L12.8725 10.8067C13.1714 11.3131 13.331 11.8894 13.3352 12.4774C13.3394 13.0653 13.1879 13.6439 12.8962 14.1544C12.6045 14.6648 12.1829 15.089 11.6742 15.3839C11.1656 15.6788 10.588 15.8339 10 15.8334C8.15834 15.8334 6.66668 14.3417 6.66668 12.5001C6.66668 10.6584 8.15834 9.16675 10 9.16675Z" fill="black" />
</svg>