<svg width="11" height="15" viewBox="0 0 11 15" fill="none" xmlns="http://www.w3.org/2000/svg">
    <line y1="5.5" x2="11" y2="5.5" stroke="black" />
    <line y1="9.5" x2="11" y2="9.5" stroke="black" />
    <path fill-rule="evenodd" clip-rule="evenodd" d="M5.24746 0.0732233C5.38693 -0.0244078 5.61307 -0.0244078 5.75254 0.0732233L7.8954 1.57322C8.03487 1.67085 8.03487 1.82915 7.8954 1.92678C7.75592 2.02441 7.52979 2.02441 7.39032 1.92678L5.5 0.603553L3.60968 1.92678C3.47021 2.02441 3.24408 2.02441 3.1046 1.92678C2.96513 1.82915 2.96513 1.67085 3.1046 1.57322L5.24746 0.0732233Z" fill="#31456A" />
    <path fill-rule="evenodd" clip-rule="evenodd" d="M5.75254 14.9268C5.61307 15.0244 5.38693 15.0244 5.24746 14.9268L3.1046 13.4268C2.96513 13.3291 2.96513 13.1709 3.1046 13.0732C3.24408 12.9756 3.47021 12.9756 3.60968 13.0732L5.5 14.3964L7.39032 13.0732C7.52979 12.9756 7.75592 12.9756 7.8954 13.0732C8.03487 13.1709 8.03487 13.3291 7.8954 13.4268L5.75254 14.9268Z" fill="#31456A
" />
</svg>
