<svg width="20" height="20" viewBox="0 0 20 20" fill="none" xmlns="http://www.w3.org/2000/svg">
    <path d="M3.70898 9.16404C4.08815 8.31063 4.63936 7.54466 5.32812 6.91404L5.89648 6.39255C5.91578 6.37533 5.93901 6.36311 5.96413 6.35696C5.98925 6.35082 6.0155 6.35093 6.04057 6.35729C6.06564 6.36366 6.08876 6.37608 6.10791 6.39346C6.12706 6.41085 6.14164 6.43267 6.15039 6.45701L6.4043 7.18552C6.5625 7.64255 6.85351 8.10935 7.26562 8.56834C7.29297 8.59763 7.32422 8.60545 7.3457 8.6074C7.36719 8.60935 7.40039 8.60545 7.42969 8.5781C7.45703 8.55466 7.4707 8.51951 7.46875 8.48435C7.39648 7.30857 7.74805 5.9824 8.51758 4.53904C9.1543 3.33982 10.0391 2.40427 11.1445 1.75193L11.9512 1.27732C12.0566 1.21482 12.1914 1.29685 12.1855 1.4199L12.1426 2.3574C12.1133 2.99802 12.1875 3.56443 12.3633 4.03513C12.5781 4.6113 12.8867 5.14646 13.2812 5.62693C13.5558 5.96084 13.867 6.26287 14.209 6.52732C15.0326 7.16046 15.7023 7.97172 16.168 8.90037C16.6325 9.83711 16.8744 10.8685 16.875 11.914C16.875 12.8359 16.6934 13.7285 16.334 14.5703C15.987 15.3808 15.4862 16.1163 14.8594 16.7363C14.2266 17.3613 13.4922 17.8535 12.6738 18.1953C11.8262 18.5508 10.9277 18.7304 10 18.7304C9.07226 18.7304 8.17383 18.5508 7.32617 18.1972C6.50983 17.8574 5.76749 17.3619 5.14062 16.7383C4.50781 16.1133 4.01172 15.3828 3.66601 14.5722C3.30718 13.7327 3.1231 12.829 3.125 11.916C3.125 10.9629 3.32031 10.0371 3.70898 9.16404ZM6.07422 15.791C7.12305 16.8301 8.51562 17.4004 10 17.4004C11.4844 17.4004 12.877 16.8301 13.9258 15.791C14.9707 14.7539 15.5469 13.3789 15.5469 11.916C15.5469 11.0664 15.3555 10.2519 14.9785 9.49412C14.6113 8.75388 14.0645 8.09177 13.4004 7.58201C12.9769 7.25817 12.5928 6.88584 12.2559 6.47263C11.7676 5.87693 11.3848 5.21287 11.1191 4.49998C11.0102 4.20591 10.931 3.90165 10.8828 3.59177C10.4121 4.02537 10.0176 4.5488 9.6875 5.16209C9.03516 6.38474 8.73437 7.47263 8.79297 8.39841C8.80697 8.61645 8.77136 8.83483 8.68881 9.03713C8.60627 9.23942 8.47894 9.42037 8.31641 9.56638C8.17555 9.69362 8.01081 9.7916 7.83177 9.85464C7.65272 9.91767 7.46294 9.9445 7.27344 9.93357C6.88867 9.91404 6.53516 9.74412 6.27734 9.45701C6.01758 9.16599 5.79297 8.86912 5.60547 8.56638C5.33203 8.91599 5.10351 9.29685 4.92187 9.70701C4.61133 10.4062 4.45312 11.1504 4.45312 11.916C4.45312 13.3789 5.0293 14.7558 6.07422 15.791Z" fill="black" />
</svg>