<svg width="20" height="21" viewBox="0 0 20 21" fill="none" xmlns="http://www.w3.org/2000/svg">
    <path fill-rule="evenodd" clip-rule="evenodd" d="M5 8.58216C5 7.99377 5.448 7.51623 6 7.51623C6.552 7.51623 7 7.99377 7 8.58216C7 9.17056 6.552 9.6481 6 9.6481C5.448 9.6481 5 9.17056 5 8.58216ZM10 7.51623C9.448 7.51623 9 7.99377 9 8.58216C9 9.17056 9.448 9.6481 10 9.6481C10.552 9.6481 11 9.17056 11 8.58216C11 7.99377 10.552 7.51623 10 7.51623ZM14 7.51623C13.448 7.51623 13 7.99377 13 8.58216C13 9.17056 13.448 9.6481 14 9.6481C14.552 9.6481 15 9.17056 15 8.58216C15 7.99377 14.552 7.51623 14 7.51623ZM18 13.9118C18 14.4992 17.551 14.9778 17 14.9778H6.554C6.011 14.9778 5.477 15.1355 5.01 15.434L2 17.3591V3.25249C2 2.66516 2.449 2.18656 3 2.18656H17C17.551 2.18656 18 2.66516 18 3.25249V13.9118ZM17 0.0546875H3C1.346 0.0546875 0 1.48944 0 3.25249V19.2415C0 19.6252 0.194 19.9802 0.507 20.1689C0.66 20.2616 0.83 20.3074 1 20.3074C1.178 20.3074 1.356 20.2573 1.515 20.155L6.039 17.2621C6.195 17.1619 6.373 17.1096 6.554 17.1096H17C18.654 17.1096 20 15.6749 20 13.9118V3.25249C20 1.48944 18.654 0.0546875 17 0.0546875Z" fill="#231F20" />
</svg>
