<svg width="20" height="20" viewBox="0 0 20 20" fill="none" xmlns="http://www.w3.org/2000/svg">
    <path d="M11.1667 13.67H6.16667C5.94566 13.67 5.7337 13.7578 5.57742 13.9141C5.42114 14.0703 5.33334 14.2823 5.33334 14.5033C5.33334 14.7243 5.42114 14.9363 5.57742 15.0926C5.7337 15.2488 5.94566 15.3366 6.16667 15.3366H11.1667C11.3877 15.3366 11.5996 15.2488 11.7559 15.0926C11.9122 14.9363 12 14.7243 12 14.5033C12 14.2823 11.9122 14.0703 11.7559 13.9141C11.5996 13.7578 11.3877 13.67 11.1667 13.67ZM7.83334 8.66998H9.50001C9.72102 8.66998 9.93298 8.58218 10.0893 8.4259C10.2455 8.26962 10.3333 8.05766 10.3333 7.83664C10.3333 7.61563 10.2455 7.40367 10.0893 7.24739C9.93298 7.09111 9.72102 7.00331 9.50001 7.00331H7.83334C7.61233 7.00331 7.40036 7.09111 7.24408 7.24739C7.0878 7.40367 7.00001 7.61563 7.00001 7.83664C7.00001 8.05766 7.0878 8.26962 7.24408 8.4259C7.40036 8.58218 7.61233 8.66998 7.83334 8.66998ZM17.8333 10.3366H15.3333V2.83665C15.3339 2.6898 15.2957 2.54542 15.2225 2.4181C15.1494 2.29079 15.0438 2.18507 14.9167 2.11165C14.79 2.03851 14.6463 2 14.5 2C14.3537 2 14.21 2.03851 14.0833 2.11165L11.5833 3.54498L9.08334 2.11165C8.95666 2.03851 8.81295 2 8.66667 2C8.52039 2 8.37669 2.03851 8.25001 2.11165L5.75001 3.54498L3.25001 2.11165C3.12332 2.03851 2.97962 2 2.83334 2C2.68706 2 2.54336 2.03851 2.41667 2.11165C2.2895 2.18507 2.18399 2.29079 2.11082 2.4181C2.03765 2.54542 1.99942 2.6898 2.00001 2.83665V16.17C2.00001 16.833 2.2634 17.4689 2.73224 17.9377C3.20108 18.4066 3.83697 18.67 4.50001 18.67H16.1667C16.8297 18.67 17.4656 18.4066 17.9344 17.9377C18.4033 17.4689 18.6667 16.833 18.6667 16.17V11.17C18.6667 10.949 18.5789 10.737 18.4226 10.5807C18.2663 10.4244 18.0544 10.3366 17.8333 10.3366ZM4.50001 17.0033C4.27899 17.0033 4.06703 16.9155 3.91075 16.7592C3.75447 16.603 3.66667 16.391 3.66667 16.17V4.27831L5.33334 5.22831C5.46195 5.29549 5.6049 5.33057 5.75001 5.33057C5.89511 5.33057 6.03806 5.29549 6.16667 5.22831L8.66667 3.79498L11.1667 5.22831C11.2953 5.29549 11.4382 5.33057 11.5833 5.33057C11.7284 5.33057 11.8714 5.29549 12 5.22831L13.6667 4.27831V16.17C13.6689 16.4543 13.7197 16.7361 13.8167 17.0033H4.50001ZM17 16.17C17 16.391 16.9122 16.603 16.7559 16.7592C16.5996 16.9155 16.3877 17.0033 16.1667 17.0033C15.9457 17.0033 15.7337 16.9155 15.5774 16.7592C15.4211 16.603 15.3333 16.391 15.3333 16.17V12.0033H17V16.17ZM11.1667 10.3366H6.16667C5.94566 10.3366 5.7337 10.4244 5.57742 10.5807C5.42114 10.737 5.33334 10.949 5.33334 11.17C5.33334 11.391 5.42114 11.603 5.57742 11.7592C5.7337 11.9155 5.94566 12.0033 6.16667 12.0033H11.1667C11.3877 12.0033 11.5996 11.9155 11.7559 11.7592C11.9122 11.603 12 11.391 12 11.17C12 10.949 11.9122 10.737 11.7559 10.5807C11.5996 10.4244 11.3877 10.3366 11.1667 10.3366Z" fill="#31456A" />
</svg>
