<svg width="20" height="18" viewBox="0 0 20 18" fill="none" xmlns="http://www.w3.org/2000/svg">
<path d="M11.4286 0C9.15529 0 6.97511 0.903058 5.36766 2.51051C3.7602 4.11797 2.85714 6.29814 2.85714 8.57143H0L3.80952 12.381L7.61905 8.57143H4.7619C4.7619 6.80332 5.46428 5.10763 6.71453 3.85738C7.96477 2.60714 9.66046 1.90476 11.4286 1.90476C13.1967 1.90476 14.8924 2.60714 16.1426 3.85738C17.3929 5.10763 18.0952 6.80332 18.0952 8.57143C18.0952 10.3395 17.3929 12.0352 16.1426 13.2855C14.8924 14.5357 13.1967 15.2381 11.4286 15.2381C10 15.2381 8.65714 14.7619 7.5619 14L6.19048 15.3714C7.69675 16.5171 9.53613 17.1391 11.4286 17.1429C13.7019 17.1429 15.882 16.2398 17.4895 14.6323C19.0969 13.0249 20 10.8447 20 8.57143C20 6.29814 19.0969 4.11797 17.4895 2.51051C15.882 0.903058 13.7019 0 11.4286 0ZM13.3333 8.57143C13.3333 8.06625 13.1327 7.58177 12.7754 7.22456C12.4182 6.86735 11.9337 6.66667 11.4286 6.66667C10.9234 6.66667 10.4389 6.86735 10.0817 7.22456C9.72449 7.58177 9.52381 8.06625 9.52381 8.57143C9.52381 9.0766 9.72449 9.56109 10.0817 9.9183C10.4389 10.2755 10.9234 10.4762 11.4286 10.4762C11.9337 10.4762 12.4182 10.2755 12.7754 9.9183C13.1327 9.56109 13.3333 9.0766 13.3333 8.57143Z" fill="#000"/>
</svg>
