<svg width="26" height="26" viewBox="0 0 26 26" fill="none" xmlns="http://www.w3.org/2000/svg">
    <path fill-rule="evenodd" clip-rule="evenodd" d="M16.75 20.2972L14.43 13.3385L21.39 6.37722L16.75 20.2972ZM19.6225 4.60971L12.6625 11.5697L5.70253 9.24971L19.6225 4.60971ZM25.4875 1.68467C25.4812 1.56842 25.46 1.45592 25.4212 1.34717C25.4088 1.30842 25.395 1.27092 25.3775 1.23342C25.3175 1.09967 25.2413 0.973418 25.1338 0.865918C25.0263 0.758418 24.9 0.682168 24.765 0.622168C24.7288 0.604668 24.6925 0.590918 24.6537 0.578418C24.5425 0.539668 24.4288 0.517168 24.31 0.510918C24.2825 0.509668 24.2575 0.503418 24.2288 0.503418C24.1038 0.505918 23.9775 0.523418 23.855 0.563418L1.355 8.06342C0.84375 8.23467 0.5 8.71092 0.5 9.24967C0.5 9.78842 0.84375 10.2659 1.355 10.4359L12.0112 13.9884L15.565 24.6459C15.735 25.1559 16.2113 25.4997 16.75 25.4997C17.2887 25.4997 17.765 25.1559 17.935 24.6459L25.435 2.14592C25.475 2.02217 25.4937 1.89717 25.495 1.77217C25.4963 1.74217 25.4888 1.71467 25.4875 1.68467Z" fill="#31456A" />
</svg>