<svg width="20" height="20" viewBox="0 0 20 20" fill="none" xmlns="http://www.w3.org/2000/svg">
    <path d="M10.7837 18.3332H9.20866C8.83736 18.3332 8.48126 18.1857 8.21871 17.9231C7.95616 17.6606 7.80866 17.3045 7.80866 16.9332V16.0248C7.80415 15.9713 7.78452 15.9202 7.75206 15.8774C7.7196 15.8346 7.67565 15.8019 7.62533 15.7832C7.57434 15.7505 7.51505 15.7331 7.45449 15.7331C7.39394 15.7331 7.33465 15.7505 7.28366 15.7832L6.66699 16.4498C6.53764 16.5801 6.38379 16.6835 6.21431 16.754C6.04483 16.8246 5.86307 16.8609 5.67949 16.8609C5.49592 16.8609 5.31415 16.8246 5.14467 16.754C4.97519 16.6835 4.82135 16.5801 4.69199 16.4498L3.55033 15.3332C3.41818 15.2041 3.31322 15.0498 3.24166 14.8795C3.1701 14.7092 3.13337 14.5262 3.13366 14.3415C3.13419 13.9636 3.28394 13.6012 3.55033 13.3332L4.16699 12.7165C4.19676 12.6706 4.21261 12.6171 4.21261 12.5623C4.21261 12.5076 4.19676 12.4541 4.16699 12.4082C4.11699 12.2832 4.03366 12.1915 3.91699 12.1915H3.06699C2.69493 12.1893 2.33885 12.04 2.07653 11.7761C1.81422 11.5122 1.66699 11.1552 1.66699 10.7832V9.20817C1.66699 8.83687 1.81449 8.48077 2.07704 8.21822C2.33959 7.95567 2.69569 7.80817 3.06699 7.80817H3.97533C4.02884 7.80366 4.07997 7.78403 4.12276 7.75157C4.16555 7.71911 4.19823 7.67516 4.21699 7.62484C4.24966 7.57385 4.26702 7.51456 4.26702 7.454C4.26702 7.39345 4.24966 7.33416 4.21699 7.28317L3.55033 6.6665C3.42006 6.53715 3.31668 6.3833 3.24613 6.21382C3.17558 6.04434 3.13926 5.86258 3.13926 5.679C3.13926 5.49543 3.17558 5.31366 3.24613 5.14418C3.31668 4.9747 3.42006 4.82086 3.55033 4.6915L4.66699 3.54984C4.79482 3.41831 4.94768 3.31369 5.11655 3.24213C5.28543 3.17058 5.46692 3.13353 5.65033 3.13317C5.83886 3.13234 6.02571 3.16872 6.20017 3.24022C6.37463 3.31172 6.53326 3.41693 6.66699 3.54984L7.28366 4.1665C7.32957 4.19628 7.38311 4.21212 7.43783 4.21212C7.49254 4.21212 7.54609 4.19628 7.59199 4.1665C7.71699 4.1165 7.80866 4.03317 7.80866 3.9165V3.0665C7.81086 2.69444 7.96021 2.33836 8.22409 2.07604C8.48796 1.81373 8.84492 1.6665 9.21699 1.6665H10.8337C11.205 1.6665 11.5611 1.814 11.8236 2.07655C12.0862 2.33911 12.2337 2.6952 12.2337 3.0665V3.97484C12.2382 4.02835 12.2578 4.07948 12.2903 4.12227C12.3227 4.16506 12.3667 4.19774 12.417 4.2165C12.468 4.24917 12.5273 4.26654 12.5878 4.26654C12.6484 4.26654 12.7077 4.24917 12.7587 4.2165L13.3337 3.54984C13.463 3.41957 13.6169 3.31619 13.7863 3.24564C13.9558 3.17509 14.1376 3.13877 14.3212 3.13877C14.5047 3.13877 14.6865 3.17509 14.856 3.24564C15.0255 3.31619 15.1793 3.41957 15.3087 3.54984L16.4503 4.6665C16.5821 4.79589 16.6868 4.9502 16.7583 5.12045C16.8299 5.29071 16.8668 5.4735 16.867 5.65817C16.871 5.84592 16.8361 6.03246 16.7643 6.20601C16.6926 6.37956 16.5857 6.53636 16.4503 6.6665L15.8337 7.28317C15.8039 7.32908 15.788 7.38262 15.788 7.43734C15.788 7.49205 15.8039 7.5456 15.8337 7.5915C15.8837 7.7165 15.967 7.80817 16.0837 7.80817H16.992C17.3538 7.82532 17.6952 7.98123 17.945 8.24351C18.1949 8.50579 18.3341 8.85426 18.3337 9.21651V10.8332C18.3337 11.2045 18.1862 11.5606 17.9236 11.8231C17.6611 12.0857 17.305 12.2332 16.9337 12.2332H16.0253C15.9718 12.2377 15.9207 12.2573 15.8779 12.2898C15.8351 12.3222 15.8024 12.3662 15.7837 12.4165C15.7539 12.4624 15.738 12.516 15.738 12.5707C15.738 12.6254 15.7539 12.6789 15.7837 12.7248L16.4253 13.3665C16.5556 13.4959 16.659 13.6497 16.7295 13.8192C16.8001 13.9887 16.8364 14.1704 16.8364 14.354C16.8364 14.5376 16.8001 14.7193 16.7295 14.8888C16.659 15.0583 16.5556 15.2122 16.4253 15.3415L15.3337 16.4498C15.2058 16.5814 15.053 16.686 14.8841 16.7575C14.7152 16.8291 14.5337 16.8661 14.3503 16.8665C13.9782 16.8616 13.6226 16.7122 13.3587 16.4498L12.717 15.8332C12.6711 15.8034 12.6175 15.7876 12.5628 15.7876C12.5081 15.7876 12.4546 15.8034 12.4087 15.8332C12.2837 15.8832 12.192 15.9665 12.192 16.0832V16.9915C12.1748 17.3533 12.0189 17.6947 11.7567 17.9445C11.4944 18.1944 11.1459 18.3336 10.7837 18.3332ZM9.47533 16.6665H10.5253V16.0248C10.5289 15.6405 10.6464 15.266 10.863 14.9485C11.0796 14.631 11.3855 14.385 11.742 14.2415C12.1 14.085 12.4964 14.0387 12.8808 14.1085C13.2652 14.1782 13.6202 14.3609 13.9003 14.6332L14.3503 15.0832L15.0837 14.3498L14.6337 13.8915C14.3631 13.6156 14.1806 13.2655 14.1094 12.8856C14.0382 12.5058 14.0814 12.1134 14.2337 11.7582C14.3784 11.4032 14.625 11.0991 14.9424 10.884C15.2598 10.669 15.6337 10.5527 16.017 10.5498H16.667V9.47484H16.0253C15.641 9.47129 15.2664 9.35378 14.949 9.1372C14.6315 8.92061 14.3855 8.61469 14.242 8.25817C14.0855 7.9002 14.0392 7.50373 14.109 7.11933C14.1787 6.73492 14.3614 6.38001 14.6337 6.09984L15.0837 5.64984L14.3503 4.9165L13.892 5.3665C13.6118 5.62247 13.2642 5.79304 12.8903 5.85813C12.5164 5.92322 12.1317 5.88011 11.7814 5.73389C11.4312 5.58766 11.13 5.34441 10.9134 5.03277C10.6968 4.72113 10.5737 4.35408 10.5587 3.97484V3.33317H9.47533V3.97484C9.47178 4.35913 9.35427 4.73372 9.13768 5.05118C8.9211 5.36864 8.61518 5.61469 8.25866 5.75817C7.90068 5.91465 7.50422 5.96096 7.11981 5.8912C6.73541 5.82145 6.3805 5.63878 6.10033 5.3665L5.65033 4.9165L4.91699 5.64984L5.36699 6.10817C5.62296 6.3884 5.79353 6.73593 5.85862 7.10985C5.92371 7.48376 5.8806 7.86849 5.73438 8.21873C5.58815 8.56897 5.3449 8.87014 5.03326 9.08677C4.72162 9.3034 4.35457 9.42648 3.97533 9.4415H3.33366V10.4915H3.97533C4.35962 10.4951 4.73421 10.6126 5.05167 10.8291C5.36913 11.0457 5.61518 11.3517 5.75866 11.7082C5.91514 12.0661 5.96145 12.4626 5.89169 12.847C5.82194 13.2314 5.63927 13.5863 5.36699 13.8665L4.91699 14.3165L5.65033 15.0498L6.10866 14.5998C6.38889 14.3439 6.73642 14.1733 7.11034 14.1082C7.48425 14.0431 7.86898 14.0862 8.21922 14.2325C8.56946 14.3787 8.87062 14.6219 9.08726 14.9336C9.30389 15.2452 9.42696 15.6123 9.44199 15.9915L9.47533 16.6665Z" fill="#31456A" />
    <path d="M9.99968 12.9168C9.42281 12.9168 8.85891 12.7458 8.37926 12.4253C7.89962 12.1048 7.52578 11.6493 7.30503 11.1163C7.08427 10.5834 7.02651 9.99693 7.13905 9.43115C7.25159 8.86537 7.52938 8.34567 7.93728 7.93777C8.34518 7.52987 8.86488 7.25208 9.43066 7.13954C9.99644 7.027 10.5829 7.08476 11.1158 7.30552C11.6488 7.52627 12.1043 7.90011 12.4248 8.37975C12.7453 8.85939 12.9163 9.4233 12.9163 10.0002C12.9163 10.7737 12.6091 11.5156 12.0621 12.0626C11.5151 12.6095 10.7732 12.9168 9.99968 12.9168ZM9.99968 8.75016C9.75245 8.75016 9.51078 8.82348 9.30521 8.96083C9.09965 9.09818 8.93944 9.2934 8.84483 9.52181C8.75022 9.75022 8.72546 10.0016 8.77369 10.244C8.82193 10.4865 8.94098 10.7092 9.11579 10.884C9.29061 11.0589 9.51334 11.1779 9.75581 11.2261C9.99829 11.2744 10.2496 11.2496 10.478 11.155C10.7064 11.0604 10.9017 10.9002 11.039 10.6946C11.1764 10.4891 11.2497 10.2474 11.2497 10.0002C11.2497 9.66864 11.118 9.3507 10.8836 9.11628C10.6491 8.88186 10.3312 8.75016 9.99968 8.75016Z" fill="#31456A" />
</svg>
