<svg width="20" height="20" viewBox="0 0 20 20" fill="none" xmlns="http://www.w3.org/2000/svg">
    <path d="M10.0003 18.3332H5.00033C5.00033 17.8911 5.17592 17.4672 5.48848 17.1547C5.80104 16.8421 6.22497 16.6665 6.66699 16.6665V6.6665H1.66699V4.1665H13.3337V6.6665H8.33366V16.6665C8.77569 16.6665 9.19961 16.8421 9.51217 17.1547C9.82473 17.4672 10.0003 17.8911 10.0003 18.3332ZM18.3337 1.6665V18.3332H16.667V12.4998H12.5003V18.3332H10.8337V11.6665C10.8337 11.2245 11.0093 10.8006 11.3218 10.488C11.6344 10.1754 12.0583 9.99984 12.5003 9.99984H16.667V1.6665H18.3337Z" fill="#31456A" />
</svg>