<svg width="20" height="20" viewBox="0 0 20 20" fill="none" xmlns="http://www.w3.org/2000/svg">
    <path fill-rule="evenodd" clip-rule="evenodd" d="M1.22039 13.2204C2.00179 12.439 3.0616 12 4.16667 12H10.8333C11.9384 12 12.9982 12.439 13.7796 13.2204C14.561 14.0018 15 15.0616 15 16.1667V17.8333C15 18.2936 14.6269 18.6667 14.1667 18.6667C13.7064 18.6667 13.3333 18.2936 13.3333 17.8333V16.1667C13.3333 15.5036 13.0699 14.8677 12.6011 14.3989C12.1323 13.9301 11.4964 13.6667 10.8333 13.6667H4.16667C3.50363 13.6667 2.86774 13.9301 2.3989 14.3989C1.93006 14.8677 1.66667 15.5036 1.66667 16.1667V17.8333C1.66667 18.2936 1.29357 18.6667 0.833333 18.6667C0.373096 18.6667 0 18.2936 0 17.8333V16.1667C0 15.0616 0.438987 14.0018 1.22039 13.2204Z" fill="#31456A" />
    <path fill-rule="evenodd" clip-rule="evenodd" d="M7.5 3.66667C6.11929 3.66667 5 4.78595 5 6.16667C5 7.54738 6.11929 8.66667 7.5 8.66667C8.88071 8.66667 10 7.54738 10 6.16667C10 4.78595 8.88071 3.66667 7.5 3.66667ZM3.33333 6.16667C3.33333 3.86548 5.19881 2 7.5 2C9.80119 2 11.6667 3.86548 11.6667 6.16667C11.6667 8.46785 9.80119 10.3333 7.5 10.3333C5.19881 10.3333 3.33333 8.46785 3.33333 6.16667Z" fill="#31456A" />
    <path fill-rule="evenodd" clip-rule="evenodd" d="M15.8598 12.7333C15.9748 12.2877 16.4293 12.0197 16.875 12.1348C17.7688 12.3656 18.5608 12.8867 19.1264 13.6164C19.692 14.346 19.9993 15.2428 20 16.166V17.8333C20 18.2935 19.6269 18.6666 19.1666 18.6666C18.7064 18.6666 18.3333 18.2935 18.3333 17.8333V16.1673C18.3328 15.6134 18.1485 15.0752 17.8091 14.6375C17.4698 14.1997 16.9946 13.887 16.4583 13.7485C16.0127 13.6335 15.7447 13.1789 15.8598 12.7333Z" fill="#31456A" />
    <path fill-rule="evenodd" clip-rule="evenodd" d="M12.526 2.73495C12.6402 2.28909 13.0941 2.0202 13.54 2.13435C14.4363 2.36383 15.2307 2.88508 15.7979 3.61593C16.3652 4.34677 16.6732 5.24564 16.6732 6.17081C16.6732 7.09599 16.3652 7.99486 15.7979 8.7257C15.2307 9.45654 14.4363 9.97779 13.54 10.2073C13.0941 10.3214 12.6402 10.0525 12.526 9.60668C12.4118 9.16082 12.6807 8.70685 13.1266 8.59269C13.6644 8.455 14.141 8.14225 14.4814 7.70374C14.8217 7.26524 15.0065 6.72592 15.0065 6.17081C15.0065 5.61571 14.8217 5.07639 14.4814 4.63788C14.141 4.19938 13.6644 3.88663 13.1266 3.74894C12.6807 3.63478 12.4118 3.1808 12.526 2.73495Z" fill="#31456A" />
</svg>